<svg width="37" height="46" viewBox="0 0 37 46" fill="none" xmlns="http://www.w3.org/2000/svg">
<path d="M24.992 18.7183C21.1673 18.7598 18.2107 15.8667 18.1692 12.0419L18.0472 0.792556L6.79788 0.914572C2.97311 0.956057 0.080003 3.91261 0.121488 7.73739L0.463133 39.2355C0.504619 43.0603 3.46117 45.9534 7.28595 45.9119L29.7846 45.6679C33.6094 45.6264 36.5025 42.6699 36.461 38.8451L36.2414 18.5963L24.992 18.7183ZM11.444 14.365L13.6939 14.3406C15.0438 14.3259 15.9535 15.2161 15.9682 16.566C15.9828 17.916 15.0926 18.8257 13.7427 18.8403L11.4928 18.8647C10.1429 18.8794 9.23321 17.9892 9.21857 16.6392C9.20393 15.2893 10.0941 14.3796 11.444 14.365ZM25.1873 36.7172L11.6881 36.8637C10.3381 36.8783 9.42844 35.9881 9.4138 34.6382C9.39916 33.2883 10.2893 32.3786 11.6393 32.3639L25.1385 32.2175C26.4884 32.2029 27.3981 33.093 27.4127 34.443C27.4274 35.7929 26.5372 36.7026 25.1873 36.7172ZM25.0897 27.7178L11.5905 27.8642C10.2405 27.8788 9.33083 26.9886 9.31619 25.6387C9.30154 24.2888 10.1917 23.3791 11.5416 23.3644L25.0409 23.218C26.3908 23.2034 27.3005 24.0936 27.3151 25.4435C27.3298 26.7934 26.4396 27.7031 25.0897 27.7178ZM24.9432 14.2186L34.8427 14.1112L22.5616 2.09367L22.669 11.9931C22.6836 13.343 23.5933 14.2332 24.9432 14.2186Z" fill="black"/>
</svg>
